/* XPM */
static char * icon_xpm[] = {
"16 16 58 1",
" 	c None",
".	c #636363",
"+	c #646464",
"@	c #666666",
"#	c #848484",
"$	c #6D6D6D",
"%	c #D7D7D7",
"&	c #FFFFFF",
"*	c #F2F2F2",
"=	c #828282",
"-	c #737373",
";	c #F2CBCB",
">	c #EACCCC",
",	c #808080",
"'	c #656565",
")	c #E0E0E0",
"!	c #F3CECE",
"~	c #C10101",
"{	c #C20606",
"]	c #E0A6A6",
"^	c #7E7E7E",
"/	c #727272",
"(	c #DFC4C4",
"_	c #C30808",
":	c #C10000",
"<	c #C20707",
"[	c #DFA8A8",
"}	c #747474",
"|	c #D8A1A1",
"1	c #DEAAAA",
"2	c #7A7A7A",
"3	c #767676",
"4	c #D9A0A0",
"5	c #C30909",
"6	c #DEACAC",
"7	c #787878",
"8	c #DA9E9E",
"9	c #C20505",
"0	c #C30A0A",
"a	c #DDAEAE",
"b	c #797979",
"c	c #DA9C9C",
"d	c #C20404",
"e	c #CB2A2A",
"f	c #E7E7E7",
"g	c #686868",
"h	c #7B7B7B",
"i	c #DC9C9C",
"j	c #C61616",
"k	c #DD7575",
"l	c #7F7F7F",
"m	c #7D7D7D",
"n	c #EFEFEF",
"o	c #E2E2E2",
"p	c #676767",
"q	c #6C6C6C",
"r	c #878787",
"s	c #696969",
"   .+.          ",
"  .+++.         ",
" ++@#$++        ",
".++%&*=+.       ",
".+-&&;>,+       ",
"++')!~{]^       ",
" ++/(_:<[       ",
"  .+}|<:_12+.   ",
"   .+34{:567+.  ",
"       89:0a3++ ",
"       bcd:efg++",
"       +hijk&l+.",
"       .+mn&op+.",
"        ++qrs++ ",
"         .+++.  ",
"          .+.   "};
