/* XPM */
static char * link32_xpm[] = {
"32 32 77 1",
" 	c None",
".	c #F4F4F4",
"+	c #EEEEEE",
"@	c #F0F0F0",
"#	c #E7E7E7",
"$	c #E9E9E9",
"%	c #E1E1E1",
"&	c #979797",
"*	c #444444",
"=	c #696969",
"-	c #D3D3D3",
";	c #E5E5E5",
">	c #EFEFEF",
",	c #F1F1F1",
"'	c #F8F8F8",
")	c #D8D8D8",
"!	c #F6F6F6",
"~	c #CCCCCC",
"{	c #000000",
"]	c #4A4A4A",
"^	c #666666",
"/	c #222222",
"(	c #F3F3F3",
"_	c #797979",
":	c #636363",
"<	c #707070",
"[	c #C5C5C5",
"}	c #C3C3C3",
"|	c #DDDDDD",
"1	c #DFDFDF",
"2	c #CECECE",
"3	c #BDBDBD",
"4	c #DCDCDC",
"5	c #ACACAC",
"6	c #BFBFBF",
"7	c #999999",
"8	c #ADADAD",
"9	c #8E8E8E",
"0	c #E3E3E3",
"a	c #888888",
"b	c #BBBBBB",
"c	c #B5B5B5",
"d	c #7D7D7D",
"e	c #2B2B2B",
"f	c #E0E0E0",
"g	c #EBEBEB",
"h	c #595959",
"i	c #7E7E7E",
"j	c #6B6B6B",
"k	c #131313",
"l	c #C6C6C6",
"m	c #D4D4D4",
"n	c #DEDEDE",
"o	c #D1D1D1",
"p	c #ABABAB",
"q	c #AFAFAF",
"r	c #B2B2B2",
"s	c #AAAAAA",
"t	c #5B5B5B",
"u	c #727272",
"v	c #777777",
"w	c #414141",
"x	c #B9B9B9",
"y	c #C2C2C2",
"z	c #A9A9A9",
"A	c #919191",
"B	c #4C4C4C",
"C	c #8F8F8F",
"D	c #4B4B4B",
"E	c #404040",
"F	c #A1A1A1",
"G	c #6D6D6D",
"H	c #858585",
"I	c #9A9A9A",
"J	c #767676",
"K	c #646464",
"L	c #181818",
"                                ",
"                                ",
"                                ",
"     ......                     ",
"    +@@@@@@@                    ",
"   #$%&**=-$;>@,'''             ",
"))))))    ))))))!!!!!!          ",
"~~~~~~   .~~~~~~.......         ",
"{{{]^/  ((_:^=__((((((((        ",
"   <[}[|;12[34@@@@@@@@@@@       ",
"    566666667|899960+++++$      ",
"     abbbbcde       =fgggg      ",
"      haaijk          4###      ",
"0000000llm000       000000000000",
"nnnnnnnnnnnnn       nnnnnnnnnnnn",
")))))))))))))       ))))))))))))",
"ooooooooooooo       oooooooooooo",
"ppppppqrrr5pp       pp5rrrsppppp",
"      tdddu           vdddw     ",
"      <[[[[}         }[[[[      ",
"       xyyyyyyyyyyyyyyyyyz      ",
"       ^66666666666666666       ",
"        A333333333333333B       ",
"         CbbbbbbbbbbbbbD        ",
"          E5xxxxxxxxxF/         ",
"            /GHIIIJKL           ",
"                                ",
"                                ",
"                                ",
"                                ",
"                                ",
"                                "};
