/* XPM */
static char * icon_32_xpm[] = {
"32 32 124 2",
"  	c None",
". 	c #646464",
"+ 	c #636363",
"@ 	c #6E6E6E",
"# 	c #9F9F9F",
"$ 	c #AAAAAA",
"% 	c #868686",
"& 	c #666666",
"* 	c #909090",
"= 	c #EAEAEA",
"- 	c #FFFFFF",
"; 	c #FCFCFC",
"> 	c #CECECE",
", 	c #717171",
"' 	c #E2E2E2",
") 	c #C3C3C3",
"! 	c #707070",
"~ 	c #818181",
"{ 	c #FEFEFE",
"] 	c #D2D2D2",
"^ 	c #6F6F6F",
"/ 	c #848484",
"( 	c #F0C3C3",
"_ 	c #DB6C6C",
": 	c #E08080",
"< 	c #F7DEDE",
"[ 	c #BEBEBE",
"} 	c #686868",
"| 	c #EBEBEB",
"1 	c #F1C6C6",
"2 	c #C10404",
"3 	c #C10000",
"4 	c #C71919",
"5 	c #F2CBCB",
"6 	c #CDCCCC",
"7 	c #6D6D6D",
"8 	c #A0A0A0",
"9 	c #F6F6F6",
"0 	c #DD7474",
"a 	c #CE3535",
"b 	c #F2CDCD",
"c 	c #BABABA",
"d 	c #656565",
"e 	c #9C9C9C",
"f 	c #F7F7F7",
"g 	c #E38D8D",
"h 	c #C81C1C",
"i 	c #F2CECE",
"j 	c #C9C8C8",
"k 	c #AFAFAF",
"l 	c #F2DFDF",
"m 	c #C92222",
"n 	c #CF3A3A",
"o 	c #F3D0D0",
"p 	c #EECCCC",
"q 	c #CF3B3B",
"r 	c #C92121",
"s 	c #F3D2D2",
"t 	c #C4C4C4",
"u 	c #6A6A6A",
"v 	c #B4B3B3",
"w 	c #EECBCB",
"x 	c #C81D1D",
"y 	c #D03F3F",
"z 	c #F3D4D4",
"A 	c #B0B0B0",
"B 	c #676767",
"C 	c #A5A5A5",
"D 	c #EFCACA",
"E 	c #CE3636",
"F 	c #CA2626",
"G 	c #F3D5D5",
"H 	c #BFBFBF",
"I 	c #696969",
"J 	c #B8B7B7",
"K 	c #EEC8C8",
"L 	c #C71A1A",
"M 	c #D14444",
"N 	c #F3D6D6",
"O 	c #ACACAC",
"P 	c #C8C8C8",
"Q 	c #EEC6C6",
"R 	c #CD3232",
"S 	c #CB2A2A",
"T 	c #F3D7D7",
"U 	c #BBBBBB",
"V 	c #BDBBBB",
"W 	c #EEC4C4",
"X 	c #C61515",
"Y 	c #D34B4B",
"Z 	c #F3DBDB",
"` 	c #A7A7A7",
" .	c #AEAEAE",
"..	c #EEC3C3",
"+.	c #CC2E2E",
"@.	c #FAFAFA",
"#.	c #C1BFBF",
"$.	c #EEC1C1",
"%.	c #C51212",
"&.	c #D03E3E",
"*.	c #F3F3F3",
"=.	c #747474",
"-.	c #B3B3B3",
";.	c #EEBFBF",
">.	c #C20505",
",.	c #DF7D7D",
"'.	c #9B9B9B",
").	c #6B6B6B",
"!.	c #C6C3C3",
"~.	c #F0C5C5",
"{.	c #D03D3D",
"].	c #DC6F6F",
"^.	c #F8E4E4",
"/.	c #999999",
"(.	c #6C6C6C",
"_.	c #B7B7B7",
":.	c #FDFDFD",
"<.	c #F1F1F1",
"[.	c #737373",
"}.	c #C5C5C5",
"|.	c #858585",
"1.	c #ADADAD",
"2.	c #A8A8A8",
"3.	c #787878",
"                . .                                             ",
"          . + + . . + . +                                       ",
"        + + . . . . . . . +                                     ",
"      . . . . . . . . . . . +                                   ",
"    . . . . . . . . . . . . . .                                 ",
"    + . . . . @ # $ % & . . . . +                               ",
"  + . . . . * = - - ; > , . . . . +                             ",
"  + . . . & ' - - - - - ) ! . . . +                             ",
"+ . . . . ~ - - - - - - { ] ^ . . . +                           ",
". . . . . / - - - - ( _ : < [ ^ . . .                           ",
"  + . . . } | - - 1 2 3 3 4 5 6 7 . +                           ",
"  + . . . . 8 9 - 0 3 3 3 3 a b c 7 .                           ",
"  . . . . . d e f g 3 3 3 3 3 h i j ,                           ",
"    + . . . . d k l m 3 3 3 3 3 n o ] ^ + + + +                 ",
"      + . . . . & 8 p q 3 3 3 3 3 r s t u . . . + .             ",
"        + . . . . & v w x 3 3 3 3 3 y z A u . . . . +           ",
"          + . . . . B C D E 3 3 3 3 3 F G H I . . . . +         ",
"            . + . . . B J K L 3 3 3 3 3 M N O } . . . . +       ",
"                + + + + u P Q R 3 3 3 3 3 S T U } . . . . +     ",
"                          u V W X 3 3 3 3 3 Y Z ` B . . . . .   ",
"                          . I  ...+.3 3 3 3 3 _ @.k . . . . +   ",
"                          + . u #.$.%.3 3 3 3 &.- *.=.. . . +   ",
"                          . . . u -.;.S 3 3 >.,.- - '.. . . . . ",
"                          + . . . ).!.~.{.x ].^.- - /.. . . . + ",
"                            + . . . (._.:.- - - - <.[.. . . +   ",
"                            + . . . . 7 }.@.- - *.C . . . . +   ",
"                              + . . . . d |.1.2.3.. . . . +     ",
"                                . . . . . . . . . . . . . .     ",
"                                  + . . . . . . . . . . .       ",
"                                    + . . . . . . . + +         ",
"                                      + . + . . + + .           ",
"                                            . .                 "};
